<?xml version="1.0" encoding="iso-8859-1"?>
<!-- Generator: Adobe Illustrator 19.0.0, SVG Export Plug-In . SVG Version: 6.00 Build 0)  -->
<svg version="1.1" id="Layer_1" xmlns="http://www.w3.org/2000/svg" xmlns:xlink="http://www.w3.org/1999/xlink" x="0px" y="0px"
	 viewBox="0 0 512 512" style="enable-background:new 0 0 512 512;" xml:space="preserve">
<polygon style="fill:#02ACAB;" points="323.517,399.473 323.517,286.945 289.758,286.945 256,512 368.527,399.473 "/>
<polygon style="fill:#42C8C6;" points="289.758,399.473 289.758,286.945 188.484,286.945 188.484,399.473 143.473,399.473 256,512 
	334.769,399.473 "/>
<path style="fill:#81E3E2;" d="M407.912,70.536c-5.784,0-11.434,0.567-16.903,1.643l-34.664,34.211l10.722-35.565
	C347.583,28.998,305.184,0,256,0l118.154,244.954h33.758c48.164,0,87.209-39.046,87.209-87.209
	C495.121,109.58,456.076,70.536,407.912,70.536z"/>
<path style="fill:#ABECEC;" d="M461.363,157.744c0-42.396-30.258-77.711-70.353-85.566c-7.189,1.414-14.063,3.711-20.501,6.774
	c-1.05-2.759-2.202-5.468-3.441-8.128c-10.778,0.869-21.001,3.698-30.317,8.128C324.372,32.8,292.889,0,256,0
	c-52.312,0-96.955,32.8-114.508,78.953c-11.336-5.392-24.016-8.417-37.404-8.417c-48.164,0-87.209,39.045-87.209,87.209
	s39.045,87.209,87.209,87.209c27.671,0,270.066,0,270.066,0C422.318,244.953,461.363,205.908,461.363,157.744z"/>
<g>
	<circle style="fill:#81E3E2;" cx="126.593" cy="157.741" r="8.44"/>
	<circle style="fill:#81E3E2;" cx="92.835" cy="191.499" r="8.44"/>
</g>
<g>
</g>
<g>
</g>
<g>
</g>
<g>
</g>
<g>
</g>
<g>
</g>
<g>
</g>
<g>
</g>
<g>
</g>
<g>
</g>
<g>
</g>
<g>
</g>
<g>
</g>
<g>
</g>
<g>
</g>
</svg>
